<?xml version="1.0" encoding="UTF-8" standalone="no"?>
<!-- Created with Inkscape (http://www.inkscape.org/) -->

<svg
   width="210mm"
   height="297mm"
   viewBox="0 0 210 297"
   version="1.1"
   id="svg1"
   xml:space="preserve"
   inkscape:version="1.4 (86a8ad7, 2024-10-11)"
   sodipodi:docname="logo.svg"
   xmlns:inkscape="http://www.inkscape.org/namespaces/inkscape"
   xmlns:sodipodi="http://sodipodi.sourceforge.net/DTD/sodipodi-0.dtd"
   xmlns="http://www.w3.org/2000/svg"
   xmlns:svg="http://www.w3.org/2000/svg"><sodipodi:namedview
     id="namedview1"
     pagecolor="#ffffff"
     bordercolor="#000000"
     borderopacity="0.25"
     inkscape:showpageshadow="2"
     inkscape:pageopacity="0.0"
     inkscape:pagecheckerboard="0"
     inkscape:deskcolor="#d1d1d1"
     inkscape:document-units="mm"
     inkscape:zoom="1.2711951"
     inkscape:cx="195.87867"
     inkscape:cy="311.91122"
     inkscape:window-width="1549"
     inkscape:window-height="1211"
     inkscape:window-x="288"
     inkscape:window-y="133"
     inkscape:window-maximized="0"
     inkscape:current-layer="layer1" /><defs
     id="defs1" /><g
     inkscape:label="Layer 1"
     inkscape:groupmode="layer"
     id="layer1"><path
       style="fill:#000000;stroke-width:0.264583"
       d="m 114.26748,113.64306 -9.30934,9.21524 -2.68595,-2.64916 -2.24442,2.09725 -5.187943,-5.04075 2.35481,-2.09725 -11.47968,-11.51648 -4.41527,4.30488 -5.11434,-5.11435 5.18793,-5.151129 -70.497025,-64.499634 -5.2615199,-18.948834 19.0040259,5.316713 64.610009,70.313057 5.3719,-5.316712 5.25329,5.047281 -4.76115,4.657079 11.410673,11.507299 2.4284,-2.50199 5.07755,5.07756 -2.35481,2.48358 2.74115,2.64916 z"
       id="path1"
       inkscape:export-filename="path1.png"
       inkscape:export-xdpi="96"
       inkscape:export-ydpi="96" /><path
       style="fill:#000000;stroke-width:0.264583"
       d="M 6.5345771,113.58625 14.482049,121.6809 96.017237,41.617471 84.684727,32.786944 Z"
       id="path3" /><path
       id="path4"
       style="fill:#000000;stroke-width:0.387114"
       d="m 105.68362,25.913776 c -5.52109,-5.533538 -9.066373,-8.068656 -10.975123,-6.280877 -2.18143,2.043165 -5.41031,-2.485867 -5.41031,-2.485867 0,0 -4.28727,-2.460863 -1.95413,-4.408004 2.33315,-1.94714 -1.35295,-4.737653 -1.35295,-4.737653 L 80.379457,2.38352 c 0,0 -0.97897,-1.79481398 -3.04597,0.210944 -2.06701,2.005765 -12.02059,11.884493 -12.02059,11.884493 0,0 -1.56665,0.980909 0.004,2.531545 1.57094,1.550636 7.45667,7.503346 7.45667,7.503346 0,0 1.30522,1.396963 2.79844,-0.11721 1.49321,-1.514156 4.30563,0.909343 4.30563,0.909343 l 2.7206,1.909714 c 0,0 1.61223,0.941795 1.77257,2.86507 0.16035,1.923264 -2.69379,5.123617 -2.69379,5.123617 l 0.008,0.0073 L 1.9463601,112.29217 13.758838,123.62691 91.765737,45.3358 c 0.72136,-0.515269 11.516213,-7.89962 15.687823,9.124721 4.31548,17.611307 6.56667,10.011081 6.56667,10.011081 0,0 1.20398,-4.143072 0.911,-12.861978 -0.29295,-8.718906 0.20417,-15.872233 -6.75867,-23.144516 -0.87036,-0.909032 -1.6994,-1.760523 -2.48813,-2.551022 z" /></g></svg>
